<svg width="92" height="91" viewBox="0 0 92 91" fill="none" xmlns="http://www.w3.org/2000/svg">
<mask id="path-1-outside-1_3_112" maskUnits="userSpaceOnUse" x="0" y="0" width="60" height="87" fill="black">
<rect fill="white" width="60" height="87"/>
<path fill-rule="evenodd" clip-rule="evenodd" d="M55.9038 4.07163C55.8436 4.42691 55.8123 4.79201 55.8123 5.16443V39.7291H35.0337V23.5095C35.0337 19.9234 32.1265 17.0162 28.5404 17.0162C24.9542 17.0162 22.0471 19.9234 22.0471 23.5095V81.2249C16.5691 77.7077 11.9358 72.9896 8.51889 67.4422L8.51333 67.4454L8.43621 67.3074C8.35499 67.1745 8.27447 67.041 8.19465 66.9072L8.2111 66.8977C4.88752 60.7699 3 53.7497 3 46.2888C3 22.381 22.381 3 46.2888 3C49.5933 3 52.8115 3.37028 55.9038 4.07163Z"/>
</mask>
<path fill-rule="evenodd" clip-rule="evenodd" d="M55.9038 4.07163C55.8436 4.42691 55.8123 4.79201 55.8123 5.16443V39.7291H35.0337V23.5095C35.0337 19.9234 32.1265 17.0162 28.5404 17.0162C24.9542 17.0162 22.0471 19.9234 22.0471 23.5095V81.2249C16.5691 77.7077 11.9358 72.9896 8.51889 67.4422L8.51333 67.4454L8.43621 67.3074C8.35499 67.1745 8.27447 67.041 8.19465 66.9072L8.2111 66.8977C4.88752 60.7699 3 53.7497 3 46.2888C3 22.381 22.381 3 46.2888 3C49.5933 3 52.8115 3.37028 55.9038 4.07163Z" fill="#F5F5F5"/>
<path d="M55.9038 4.07163L58.8617 4.5729L59.336 1.77385L56.5674 1.14593L55.9038 4.07163ZM55.8123 39.7291V42.7291H58.8123V39.7291H55.8123ZM35.0337 39.7291H32.0337V42.7291H35.0337V39.7291ZM22.0471 81.2249L20.4262 83.7493L25.0471 86.7162V81.2249H22.0471ZM8.51889 67.4422L11.0732 65.8688L9.5437 63.3856L7.0183 64.8444L8.51889 67.4422ZM8.51333 67.4454L5.89455 68.909L7.37904 71.5652L10.0139 70.0431L8.51333 67.4454ZM8.43621 67.3074L11.055 65.8438L11.0266 65.793L10.9963 65.7434L8.43621 67.3074ZM8.19465 66.9072L6.69476 64.309L4.05987 65.8301L5.61783 68.4434L8.19465 66.9072ZM8.2111 66.8977L9.71099 69.4958L12.241 68.0353L10.8482 65.4674L8.2111 66.8977ZM58.8123 5.16443C58.8123 4.96068 58.8294 4.76325 58.8617 4.5729L52.946 3.57035C52.8579 4.09057 52.8123 4.62334 52.8123 5.16443H58.8123ZM58.8123 39.7291V5.16443H52.8123V39.7291H58.8123ZM35.0337 42.7291H55.8123V36.7291H35.0337V42.7291ZM32.0337 23.5095V39.7291H38.0337V23.5095H32.0337ZM28.5404 20.0162C30.4697 20.0162 32.0337 21.5802 32.0337 23.5095H38.0337C38.0337 18.2665 33.7834 14.0162 28.5404 14.0162V20.0162ZM25.0471 23.5095C25.0471 21.5802 26.6111 20.0162 28.5404 20.0162V14.0162C23.2974 14.0162 19.0471 18.2665 19.0471 23.5095H25.0471ZM25.0471 81.2249V23.5095H19.0471V81.2249H25.0471ZM5.96455 69.0155C9.61757 74.9463 14.57 79.9893 20.4262 83.7493L23.6679 78.7004C18.5681 75.4261 14.254 71.0329 11.0732 65.8688L5.96455 69.0155ZM10.0139 70.0431L10.0195 70.0399L7.0183 64.8444L7.01274 64.8477L10.0139 70.0431ZM5.81743 68.771L5.89455 68.909L11.1321 65.9818L11.055 65.8438L5.81743 68.771ZM5.61783 68.4434C5.70319 68.5866 5.78929 68.7292 5.87614 68.8714L10.9963 65.7434C10.9207 65.6197 10.8458 65.4955 10.7715 65.3709L5.61783 68.4434ZM6.71121 64.2995L6.69476 64.309L9.69454 69.5053L9.71099 69.4958L6.71121 64.2995ZM0 46.2888C0 54.2616 2.0182 61.772 5.57401 68.328L10.8482 65.4674C7.75684 59.7677 6 53.2379 6 46.2888H0ZM46.2888 0C20.7242 0 0 20.7242 0 46.2888H6C6 24.0379 24.0379 6 46.2888 6V0ZM56.5674 1.14593C53.2587 0.395542 49.8181 0 46.2888 0V6C49.3686 6 52.3642 6.34503 55.2403 6.99733L56.5674 1.14593Z" fill="black" mask="url(#path-1-outside-1_3_112)"/>
<mask id="path-3-outside-2_3_112" maskUnits="userSpaceOnUse" x="32.8995" y="3.06042" width="60" height="88" fill="black">
<rect fill="white" x="32.8995" y="3.06042" width="60" height="88"/>
<path fill-rule="evenodd" clip-rule="evenodd" d="M35.8995 86.3669C39.1628 87.1234 42.5666 87.5104 46.0638 87.4819C69.9707 87.2872 89.1933 67.7489 88.9985 43.842C88.9378 36.3813 86.9931 29.3768 83.6198 23.2762L83.6361 23.2666C83.5552 23.1334 83.4737 23.0007 83.3914 22.8685L83.3131 22.731L83.3075 22.7342C79.845 17.2139 75.1723 12.533 69.6647 9.06042V69.2388C69.6647 72.825 66.7575 75.7321 63.1714 75.7321C59.5852 75.7321 56.6781 72.825 56.6781 69.2388V51.272H35.8995V86.3669Z"/>
</mask>
<path fill-rule="evenodd" clip-rule="evenodd" d="M35.8995 86.3669C39.1628 87.1234 42.5666 87.5104 46.0638 87.4819C69.9707 87.2872 89.1933 67.7489 88.9985 43.842C88.9378 36.3813 86.9931 29.3768 83.6198 23.2762L83.6361 23.2666C83.5552 23.1334 83.4737 23.0007 83.3914 22.8685L83.3131 22.731L83.3075 22.7342C79.845 17.2139 75.1723 12.533 69.6647 9.06042V69.2388C69.6647 72.825 66.7575 75.7321 63.1714 75.7321C59.5852 75.7321 56.6781 72.825 56.6781 69.2388V51.272H35.8995V86.3669Z" fill="#231F1F"/>
<path d="M35.8995 86.3669H32.8995V88.7511L35.222 89.2895L35.8995 86.3669ZM46.0638 87.4819L46.0394 84.482L46.0638 87.4819ZM88.9985 43.842L91.9984 43.8176L88.9985 43.842ZM83.6198 23.2762L82.0987 20.6905L79.5808 22.1716L80.9944 24.728L83.6198 23.2762ZM83.6361 23.2666L85.1572 25.8524L87.7795 24.3098L86.2003 21.7094L83.6361 23.2666ZM83.3914 22.8685L80.7847 24.3534L80.8135 24.4039L80.8442 24.4533L83.3914 22.8685ZM83.3131 22.731L85.9198 21.2461L84.4142 18.6029L81.7922 20.1451L83.3131 22.731ZM83.3075 22.7342L80.7661 24.3283L82.3153 26.7982L84.8284 25.3201L83.3075 22.7342ZM69.6647 9.06042L71.2647 6.52272L66.6647 3.62241V9.06042H69.6647ZM56.6781 51.272H59.6781V48.272H56.6781V51.272ZM35.8995 51.272V48.272H32.8995V51.272H35.8995ZM35.222 89.2895C38.7138 90.0988 42.3531 90.5122 46.0882 90.4818L46.0394 84.482C42.7801 84.5086 39.6119 84.1479 36.5769 83.4444L35.222 89.2895ZM46.0882 90.4818C71.652 90.2736 92.2067 69.3813 91.9984 43.8176L85.9986 43.8664C86.1799 66.1166 68.2895 84.3008 46.0394 84.482L46.0882 90.4818ZM91.9984 43.8176C91.9335 35.845 89.8542 28.3513 86.2451 21.8245L80.9944 24.728C84.1321 30.4022 85.942 36.9175 85.9986 43.8664L91.9984 43.8176ZM85.1408 25.862L85.1572 25.8524L82.115 20.6808L82.0987 20.6905L85.1408 25.862ZM86.2003 21.7094C86.1139 21.5671 86.0266 21.4252 85.9386 21.2837L80.8442 24.4533C80.9207 24.5763 80.9966 24.6998 81.0719 24.8238L86.2003 21.7094ZM85.9982 21.3836L85.9198 21.2461L80.7063 24.2159L80.7847 24.3534L85.9982 21.3836ZM81.7922 20.1451L81.7866 20.1483L84.8284 25.3201L84.834 25.3169L81.7922 20.1451ZM85.8489 21.1401C82.1471 15.2383 77.1526 10.2351 71.2647 6.52272L68.0647 11.5981C73.1921 14.831 77.5428 19.1895 80.7661 24.3283L85.8489 21.1401ZM66.6647 9.06042V69.2388H72.6647V9.06042H66.6647ZM66.6647 69.2388C66.6647 71.1681 65.1007 72.7321 63.1714 72.7321V78.7321C68.4144 78.7321 72.6647 74.4819 72.6647 69.2388H66.6647ZM63.1714 72.7321C61.2421 72.7321 59.6781 71.1681 59.6781 69.2388H53.6781C53.6781 74.4818 57.9284 78.7321 63.1714 78.7321V72.7321ZM59.6781 69.2388V51.272H53.6781V69.2388H59.6781ZM56.6781 48.272H35.8995V54.272H56.6781V48.272ZM32.8995 51.272V86.3669H38.8995V51.272H32.8995Z" fill="black" mask="url(#path-3-outside-2_3_112)"/>
</svg>
