<svg width="75" height="28" viewBox="0 0 75 28" fill="none" xmlns="http://www.w3.org/2000/svg">
<path fill-rule="evenodd" clip-rule="evenodd" d="M22.9972 5.17638L12.8511 20.8973L12.8268 20.8846C12.7428 22.2654 10.7219 24.2966 8.82955 24.2966C8.49747 24.2966 8.13193 24.3079 7.75421 24.3195H7.75418H7.75415H7.75413H7.7541C7.13122 24.3386 6.47525 24.3588 5.88171 24.3313C5.89183 24.3826 5.90338 24.4335 5.91632 24.4841H3.17045V3.92727H8.23295C10.2784 3.92727 11.9872 4.34062 13.3594 5.16733C14.7315 5.98551 15.7628 7.16165 16.4531 8.69574C16.8089 9.482 17.073 10.3464 17.2454 11.2888L19.4396 7.89403C19.3375 7.64859 19.2283 7.40872 19.1122 7.17443C18.1491 5.22273 16.7642 3.72699 14.9574 2.68722C13.1506 1.63892 10.9773 1.11477 8.4375 1.11477H0V27.2966H8.07955C8.57707 27.2966 9.06057 27.2782 9.53004 27.2415C9.78951 27.2777 10.0567 27.2966 10.3295 27.2966C11.4381 27.2966 12.4529 26.9849 13.2372 26.468C13.3263 26.4353 13.4146 26.4017 13.5022 26.3672L13.5537 26.4033L13.8351 25.9914C14.1897 25.6492 14.4632 25.2539 14.6328 24.8234L24.0835 10.9863L25.2939 8.85305L31.5467 24.2966H18.4506L16.4777 27.2966H37.3295L36.3147 24.8065L36.3295 24.7966L27.5325 4.90754L27.5444 4.88645L25.8223 1.02164L23.0219 5.19296L22.9972 5.17638Z" fill="black"/>
<path fill-rule="evenodd" clip-rule="evenodd" d="M36.5 1.00595H31.8633L43.8316 27.0285L46.7914 23.6013L40.5965 10H50.2677L53.1366 16.2539L56.2582 12.6394L50.7697 1.10594L46.1538 1.03191L48.8915 7H39.2301L36.5 1.00595Z" fill="black"/>
<path fill-rule="evenodd" clip-rule="evenodd" d="M74.8409 0.966059L70.7738 0.796082L64.5128 8.23441L61 1.02174L56.5 1.02174L61.438 11.8873L48.4179 27.3556L52.9714 27.3716L74.8409 0.966059Z" fill="black"/>
</svg>
